<svg width="174" height="56" viewBox="0 0 174 56" fill="none" xmlns="http://www.w3.org/2000/svg">
<path d="M32 9C35.866 9 39 12.134 39 16V40C39 43.866 35.866 47 32 47H16C12.134 47 9 43.866 9 40V9H32Z" fill="#FCEDDA" stroke="#EE4E34" stroke-width="2"/>
<rect x="14" y="30" width="20" height="2" rx="1" fill="#EE4E34"/>
<rect x="14" y="14" width="8" height="8" rx="4" fill="#EE4E34"/>
<path d="M14 35C14 34.4477 14.4477 34 15 34H33C33.5523 34 34 34.4477 34 35C34 35.5523 33.5523 36 33 36H15C14.4477 36 14 35.5523 14 35Z" fill="#EE4E34"/>
<rect x="14" y="38" width="8" height="2" rx="1" fill="#EE4E34"/>
<path d="M56.352 39.224C55.5413 39.224 54.7307 39.1387 53.92 38.968C53.1307 38.7973 52.384 38.52 51.68 38.136C50.976 37.7307 50.3893 37.1867 49.92 36.504C49.4507 35.8213 49.1413 34.968 48.992 33.944H52.928C53.0987 34.4133 53.3653 34.7973 53.728 35.096C54.112 35.3733 54.5493 35.5867 55.04 35.736C55.552 35.864 56.0533 35.928 56.544 35.928C56.8427 35.928 57.1627 35.9067 57.504 35.864C57.8667 35.8213 58.1973 35.736 58.496 35.608C58.816 35.48 59.072 35.2987 59.264 35.064C59.456 34.808 59.552 34.4773 59.552 34.072C59.552 33.688 59.4453 33.3893 59.232 33.176C59.0187 32.9413 58.7307 32.76 58.368 32.632C58.0053 32.4827 57.568 32.3653 57.056 32.28C56.1387 32.088 55.1573 31.8853 54.112 31.672C53.0667 31.4373 52.16 31.0747 51.392 30.584C51.072 30.392 50.7947 30.168 50.56 29.912C50.3253 29.656 50.1227 29.3787 49.952 29.08C49.8027 28.76 49.6853 28.4187 49.6 28.056C49.536 27.6933 49.504 27.2987 49.504 26.872C49.504 25.976 49.6853 25.2187 50.048 24.6C50.432 23.96 50.9333 23.448 51.552 23.064C52.192 22.6587 52.9173 22.36 53.728 22.168C54.5387 21.976 55.3707 21.88 56.224 21.88C57.376 21.88 58.4213 22.0613 59.36 22.424C60.2987 22.7867 61.0773 23.3413 61.696 24.088C62.336 24.8347 62.72 25.784 62.848 26.936H59.136C59.0293 26.4027 58.6987 25.976 58.144 25.656C57.6107 25.336 56.928 25.176 56.096 25.176C55.7973 25.176 55.488 25.208 55.168 25.272C54.848 25.3147 54.5387 25.4 54.24 25.528C53.9627 25.6347 53.728 25.8053 53.536 26.04C53.3653 26.2747 53.28 26.5627 53.28 26.904C53.28 27.224 53.3547 27.5013 53.504 27.736C53.6747 27.9707 53.92 28.1733 54.24 28.344C54.5813 28.4933 54.976 28.6213 55.424 28.728C56.1493 28.8773 56.9067 29.0267 57.696 29.176C58.4853 29.3253 59.168 29.4747 59.744 29.624C60.4267 29.816 61.0453 30.0933 61.6 30.456C62.1547 30.7973 62.5813 31.256 62.88 31.832C63.2 32.3867 63.36 33.1013 63.36 33.976C63.36 35 63.1467 35.8533 62.72 36.536C62.3147 37.2187 61.7707 37.752 61.088 38.136C60.4053 38.52 59.648 38.7973 58.816 38.968C57.984 39.1387 57.1627 39.224 56.352 39.224ZM71.9918 39.192C70.1358 39.192 68.7811 38.68 67.9278 37.656C67.0744 36.632 66.6478 35.2133 66.6478 33.4V25.592H64.0558V22.136H66.6478V17.4H70.5518V22.136H75.6718V25.592H70.5518V32.664C70.5518 33.2187 70.6158 33.72 70.7438 34.168C70.8718 34.616 71.1064 34.968 71.4478 35.224C71.7891 35.48 72.2584 35.6187 72.8558 35.64C73.3678 35.64 73.8051 35.5547 74.1678 35.384C74.5304 35.2133 74.8291 35.0213 75.0638 34.808L76.3758 37.784C75.9704 38.1253 75.5118 38.4027 74.9998 38.616C74.5091 38.8293 74.0078 38.9787 73.4958 39.064C72.9838 39.1493 72.4824 39.192 71.9918 39.192ZM85.2425 39.224C83.5145 39.224 82.0212 38.872 80.7625 38.168C79.5252 37.464 78.5652 36.4613 77.8825 35.16C77.2212 33.8587 76.8905 32.3333 76.8905 30.584C76.8905 28.8133 77.2318 27.288 77.9145 26.008C78.5972 24.7067 79.5572 23.6933 80.7945 22.968C82.0318 22.2427 83.5145 21.88 85.2425 21.88C86.9492 21.88 88.4212 22.2427 89.6585 22.968C90.8958 23.6933 91.8452 24.7173 92.5065 26.04C93.1678 27.3413 93.4985 28.8773 93.4985 30.648C93.4985 32.376 93.1678 33.8907 92.5065 35.192C91.8665 36.472 90.9278 37.464 89.6905 38.168C88.4532 38.872 86.9705 39.224 85.2425 39.224ZM85.2105 35.672C86.2772 35.672 87.1305 35.4373 87.7705 34.968C88.4318 34.4987 88.9118 33.88 89.2105 33.112C89.5092 32.344 89.6585 31.512 89.6585 30.616C89.6585 29.72 89.5092 28.8773 89.2105 28.088C88.9118 27.2987 88.4318 26.6693 87.7705 26.2C87.1305 25.7093 86.2772 25.464 85.2105 25.464C84.1438 25.464 83.2798 25.7093 82.6185 26.2C81.9572 26.6693 81.4772 27.2987 81.1785 28.088C80.8798 28.856 80.7305 29.6987 80.7305 30.616C80.7305 31.512 80.8798 32.3547 81.1785 33.144C81.4985 33.912 81.9785 34.5307 82.6185 35C83.2798 35.448 84.1438 35.672 85.2105 35.672ZM95.6642 39V22.136H99.2162L99.4402 24.344C99.8669 23.704 100.347 23.2133 100.88 22.872C101.435 22.5093 102.022 22.2533 102.64 22.104C103.28 21.9547 103.92 21.88 104.56 21.88C104.795 21.88 105.008 21.88 105.2 21.88C105.414 21.88 105.584 21.8907 105.712 21.912V25.624H104.688C103.579 25.624 102.64 25.8373 101.872 26.264C101.104 26.6907 100.528 27.2987 100.144 28.088C99.7602 28.8773 99.5682 29.848 99.5682 31V39H95.6642ZM114.504 46.712C113.203 46.712 111.933 46.5307 110.696 46.168C109.48 45.8267 108.349 45.24 107.304 44.408L108.712 41.272C109.437 41.848 110.248 42.296 111.144 42.616C112.04 42.9573 113.021 43.128 114.088 43.128C115.773 43.128 117 42.7013 117.768 41.848C118.557 40.9947 118.952 39.832 118.952 38.36V37.112C118.568 37.6027 118.099 38.008 117.544 38.328C116.989 38.648 116.392 38.8827 115.752 39.032C115.112 39.1813 114.461 39.256 113.8 39.256C112.157 39.256 110.845 38.9253 109.864 38.264C108.904 37.5813 108.211 36.6533 107.784 35.48C107.357 34.2853 107.144 32.9307 107.144 31.416V22.136H111.016V30.552C111.016 31.1493 111.059 31.7573 111.144 32.376C111.229 32.9947 111.4 33.56 111.656 34.072C111.912 34.584 112.285 35 112.776 35.32C113.288 35.6187 113.96 35.768 114.792 35.768C115.88 35.768 116.723 35.5013 117.32 34.968C117.917 34.4347 118.323 33.7413 118.536 32.888C118.771 32.0347 118.888 31.128 118.888 30.168V22.136H122.792V37.4C122.792 38.8293 122.643 40.1093 122.344 41.24C122.045 42.392 121.565 43.3733 120.904 44.184C120.243 44.9947 119.389 45.6133 118.344 46.04C117.299 46.488 116.019 46.712 114.504 46.712ZM140.802 39.224C139.053 39.224 137.581 38.872 136.386 38.168C135.191 37.4427 134.285 36.4293 133.666 35.128C133.047 33.8267 132.738 32.3227 132.738 30.616C132.738 28.9093 133.058 27.4053 133.698 26.104C134.338 24.7813 135.277 23.7467 136.514 23C137.751 22.2533 139.255 21.88 141.026 21.88C142.327 21.88 143.479 22.104 144.482 22.552C145.506 23 146.327 23.6613 146.946 24.536C147.586 25.3893 147.991 26.456 148.162 27.736H144.322C144.066 26.9253 143.639 26.3387 143.042 25.976C142.466 25.592 141.773 25.4 140.962 25.4C139.874 25.4 139.01 25.6667 138.37 26.2C137.751 26.712 137.303 27.3627 137.026 28.152C136.749 28.9413 136.61 29.7627 136.61 30.616C136.61 31.512 136.759 32.3547 137.058 33.144C137.357 33.912 137.815 34.5307 138.434 35C139.074 35.4693 139.895 35.704 140.898 35.704C141.709 35.704 142.434 35.5227 143.074 35.16C143.735 34.7973 144.162 34.2107 144.354 33.4H148.322C148.173 34.7013 147.735 35.7893 147.01 36.664C146.306 37.5173 145.41 38.1573 144.322 38.584C143.234 39.0107 142.061 39.224 140.802 39.224ZM154.581 39L148.469 22.136H152.789L157.237 35.672L161.653 22.136H165.941L159.829 39H154.581Z" fill="#2E2E2E"/>
<path d="M128.083 39.384C127.401 39.384 126.814 39.16 126.323 38.712C125.854 38.264 125.619 37.656 125.619 36.888C125.619 36.12 125.865 35.512 126.355 35.064C126.846 34.5947 127.433 34.36 128.115 34.36C128.798 34.36 129.374 34.5947 129.843 35.064C130.313 35.512 130.547 36.12 130.547 36.888C130.547 37.656 130.313 38.264 129.843 38.712C129.374 39.16 128.787 39.384 128.083 39.384Z" fill="#EE4E34"/>
</svg>
