<svg width="1024" height="1024" viewBox="0 0 1024 1024" fill="none" xmlns="http://www.w3.org/2000/svg">
<path d="M187.429 680.803C209.553 724.055 238.751 783.498 322.2 880.849C357.67 922.219 404.653 972.162 446.938 1005.85C457.689 1013.53 463.976 1020.3 478.261 1018.87C479.793 1018.77 509.594 1016.73 507.698 1016.86C736.429 996.785 881.734 879.24 877.472 873.225C872.344 865.937 756.034 956.564 582.513 989.937C529.783 1000.05 491.99 1001.51 487.068 1002.02C470.072 1002.48 473.539 1005.64 456.961 992.954C397.498 945.483 307.599 848.037 242.103 746.524C185.696 668.462 75.6737 462.152 187.429 680.803Z" fill="#2E2E2E"/>
<path d="M881.825 445.444C883.032 443.103 881.815 440.086 879.747 438.458C877.678 436.829 874.982 436.264 872.386 435.824C847.911 431.677 822.842 434.325 798.146 436.987C794.368 437.394 788.181 438.18 786.289 442.116C784.44 445.952 787.16 451.43 790.359 453.604C794.535 456.439 799.927 456.574 804.98 456.506C828.579 456.2 852.154 453.686 875.298 449.007C877.812 448.5 880.642 447.729 881.825 445.444Z" fill="#2E2E2E"/>
<path d="M849.717 506.334C835.724 494.462 818.791 486.695 802.093 479.071C799.536 477.903 795.302 476.073 792.616 477.864C789.996 479.612 789.661 484.128 790.877 486.714C795.226 495.995 836.941 512.458 846.595 515.83C848.386 516.452 850.478 517.032 852.088 516.026C853.74 514.987 854.104 512.607 853.404 510.787C852.7 508.972 851.202 507.598 849.717 506.334Z" fill="#2E2E2E"/>
<path d="M826.342 377.64C827.559 376.275 828.842 374.633 828.54 372.832C828.229 370.984 826.251 369.791 824.379 369.748C822.507 369.7 820.73 370.534 819.063 371.391C803.351 379.474 790.201 391.671 777.267 403.715C775.284 405.564 772.095 408.648 772.694 411.688C773.278 414.657 777.166 416.611 779.91 416.482C783.502 416.314 786.629 414.088 789.478 411.894C802.791 401.656 815.151 390.168 826.342 377.64Z" fill="#2E2E2E"/>
<path d="M272.899 297.749C297.14 281.438 313.93 290.619 331.816 311.861C326.208 296.384 327.247 278.618 334.622 263.902C338.266 256.623 343.328 250.163 348.356 243.756C332.85 245.35 319.556 268.47 296.939 240.102C294.942 237.597 292.744 235.562 290.996 232.88C291.221 236.161 292.605 239.35 293.007 242.645C295.244 260.928 282.827 288.511 272.899 297.749Z" fill="#2E2E2E"/>
<path d="M310.601 894.401C294.243 897.567 282.165 923.484 255.396 895.369C253.026 892.883 250.493 890.92 248.371 888.224C249.501 895.354 258.231 904.783 246.398 938.132C243.726 945.665 240.541 953.208 235.192 959.146C259.515 939.454 278.306 947.657 299.391 968.632C291.944 952.652 291.374 933.598 297.849 917.196C301.052 909.089 305.846 901.714 310.601 894.401Z" fill="#2E2E2E"/>
<path d="M175.328 513.407C170.741 520.36 169.596 529.827 173.116 537.992C177.498 546.076 178.676 547.958 241.442 655.758C340.761 815.545 494.538 949.99 522.433 958.992C526.714 960.501 532.585 960.314 535.478 959.883C542.867 959.002 564.392 957.379 595.682 952.001C714.626 931.754 827.722 883.646 927.204 809.257C930.135 806.958 932.06 805.804 935.809 802.567C946.871 792.219 947.489 775.18 938.295 764.252C918.383 740.538 864.193 679.529 785.068 579.271C631.339 375.595 753.606 538.189 605.47 336.198C609.555 338.257 616.259 339.589 624.525 335.446C638.235 324.217 647.947 288.186 650.839 270.635C651.567 266.038 651.265 262.542 650.6 259.64C680.836 248.712 713.409 242.635 745.963 233.402C758.218 228.661 768.863 223.686 778.096 218.739C786.079 223.839 792.28 221.014 804.396 217.815L813.092 214.578C824.882 210.45 837.707 206.614 849.497 201.456L858.341 197.625L862.761 195.561C876.802 188.551 870.677 175.573 868.805 165.052C864.093 140.586 857.752 116.264 854.362 91.6546C849.425 59.9242 851.953 49.8678 842.864 41.0948C838.736 37.1153 833.138 35.9373 829.015 35.9373C821.449 35.9373 787.975 43.3982 774.035 49.4991C761.374 54.398 742.127 59.1341 740.154 71.5705C725.731 71.4795 703.932 73.7207 676.181 71.9488C600.102 70.8378 542.579 64.2485 500.002 163.357C476.365 217.46 482.724 271.713 496.631 291.696L450.142 323.374C398.169 368.848 396.871 366.913 456.851 333.22C512.946 294.641 501.937 302.993 509.063 297.045C509.297 298.161 509.388 299.281 509.781 300.383C512.582 309.731 523.103 316.219 531.608 316.157C544.768 316.784 555.212 311.014 565.57 305.56C746.03 561.807 732.88 537.231 772.249 589.39C921.137 778.073 932.242 772.01 927.798 785.711C926.141 790.538 923.004 791.869 917.416 796.184C809.927 876.53 686.654 925.792 553.713 941.542C523.218 944.526 530.957 945.297 520.407 939.675C499.308 925.279 478.951 907.666 459.389 889.981C324.556 766.216 272.995 675.99 183.632 533.381C180.792 527.514 181.827 519.335 189.8 513.771C448.106 330.064 436.082 338.698 191.739 499.965C184.891 504.485 178.656 507.895 175.328 513.407ZM799.382 63.353C800.565 63.5014 799.976 70.7229 802.926 84.1363C802.188 105.212 806.905 126.435 816.483 145.303C828.79 168.854 816.262 167.494 807.049 150.02C796.585 129.677 791.576 106.538 792.462 83.6957C795.699 69.6933 798.501 63.353 799.382 63.353ZM525.182 294.933C518.042 274.054 582.005 236.922 599.527 224.692C604.005 224.581 610.752 222.948 616.935 219.472C620.914 216.991 627.781 212.811 628.806 202.089C627.877 193.526 623.725 189.034 619.731 184.83C606.179 172.101 586.488 168.328 572.303 175.702C551.467 185.907 542.785 208.074 539.079 226.2C536.948 236.501 536.387 243.962 536.842 248.975C524.779 259.175 512.07 270.496 509.043 284.977C508.114 285.389 507.147 285.739 506.242 286.179C503.728 278.541 500.012 256.111 500.534 233.939C501.942 185.855 526.69 137.047 550.428 114.794C584.524 82.1585 631.143 87.5459 676.138 88.2833C705.742 85.1227 726.406 79.6204 740.614 77.2979C741.318 79.2661 742.285 80.0083 742.937 80.0083C743.085 81.6317 743.229 83.1019 743.377 84.7253C742.64 81.7754 742.051 80.1568 741.754 80.1568C741.016 80.1568 741.016 88.1157 741.462 103.885C741.462 119.793 748.142 157.898 753.252 174.927C758.055 187.291 763.586 197.951 769.965 209.846C749.057 217.015 691.424 229.94 667.49 236.845C617.873 250.283 594.858 270.831 563.635 288.239C552.813 294.105 530.018 307.106 525.182 294.933ZM611.997 209.502C598.79 210.421 568.85 225.97 553.435 236.395C553.991 234.36 554.518 232.191 554.997 229.863C557.022 221.186 559.326 212.882 563.329 206.221C567.308 199.359 572.974 193.493 579.309 190.461C585.683 187.373 592.201 187.607 599.297 190.706C602.731 192.152 605.887 194.254 608.406 196.601C610.848 198.808 612.62 202.208 612.495 202.979C613.913 203.846 613.448 206.853 611.997 209.502ZM578.064 299.238C580.995 297.308 583.734 295.498 586.545 293.645C588.949 292.17 591.329 290.734 593.704 289.254L588.915 313.705C576.924 297.486 579.98 301.594 578.064 299.238ZM598.225 326.319C599.628 324.772 601.515 322.229 604.608 318.523C611.183 283.263 612.452 282.324 611.59 278.23C619.252 273.499 627.125 269.28 635.271 265.707C632.608 278.297 624.443 314.744 614.277 322.723C613.429 327.31 608.818 329.834 605.872 330.035C603.239 330.322 601.668 329.719 600.782 329.805C599.987 328.718 599.939 328.651 598.225 326.319Z" fill="#2E2E2E"/>
<path d="M390.186 549.878C385.838 551.07 382.485 552.315 378.223 554.303C373.617 556.19 370.791 560.997 370.379 564.896C370.097 567.074 369.608 569.186 368.996 571.174C360.773 598.01 332.807 593.087 332.692 594.873C331.662 597.828 370.332 605.361 382.73 568.142C383.137 567.199 383.501 567.395 383.898 567.395C403.594 562.741 421.366 566.126 437.312 578.534C441.593 581.742 440.928 581.857 441.138 582.375C439.467 583.442 411.573 601.247 413.34 600.122L322.147 658.339C322.085 658.214 322.401 658.684 321.534 657.74C320.682 654.939 320.088 652.722 319.47 648.326C316.376 625.809 322.64 612.213 330.053 596.784C331.092 595.319 332.759 594.696 332.922 593.671C333.879 581.757 292.935 605.662 304.601 657.793C305.171 659.656 305.381 662.869 307.929 666.782C311.722 673.366 322.793 677.671 330.432 672.427C331.959 671.451 448.532 597.114 451.425 595.079C457.918 590.348 459.824 580.148 453.905 571.739C450.927 568.071 449.255 567.285 447.287 565.595C431.719 553.417 410.725 546.406 390.186 549.878Z" fill="#2E2E2E"/>
<path d="M321.419 501.746C333.669 497.206 345.406 502.081 351.373 506.382C357.579 510.917 359.978 514.513 360.807 514.015C362.943 512.99 351.009 485.306 319.264 485.55C286.557 489.511 269.126 527.955 287.788 556.874C306.009 586 348.327 586.311 365.562 557.708C379.713 534.133 365.069 511.621 359.725 514.58C357.814 515.576 357.852 519.383 357.761 525.374C356.803 568.861 316.075 571.36 301.579 548.116C289.43 529.253 300.315 504.337 321.419 501.746Z" fill="#2E2E2E"/>
<path d="M564.316 634.505C581.46 609.287 585.468 595.237 584.515 594.61C582.863 593.379 575.306 606.242 552.914 622.811C516.615 658.415 482.878 662.639 465.059 671.35C445.933 680.659 433.965 700.394 418.162 711.37C413.948 714.406 410.96 716.178 410.989 718.352C410.874 723.121 427.85 727.211 447.915 706.385C456.3 697.966 463.474 690.208 472.343 685.97C486.34 678.945 525.306 672.739 564.316 634.505Z" fill="#2E2E2E"/>
<path d="M474.473 768.49C478.74 769.266 482.949 764.678 488.82 756.624C505.26 734.71 532.178 745.605 548.254 722.743C551.026 713.936 550.811 708.108 550.959 704.148C550.873 688.939 546.305 705.374 535.118 713.036C524.329 729.069 495.826 719.827 475.718 746.869C467.026 759.166 470.743 768.074 474.473 768.49Z" fill="#2E2E2E"/>
<path d="M508.607 805.555L718.384 674.405L730.5 693.781L520.718 824.931L508.607 805.555Z" fill="#2E2E2E"/>
<path d="M608.186 814.769C597.559 823.561 586.545 831.893 575.186 839.723C563.109 847.869 571.8 861.713 584.462 853.17C596.214 845.072 607.606 836.448 618.606 827.349C624.769 807.188 626.479 809.918 608.186 814.769Z" fill="#2E2E2E"/>
<path d="M740.528 758.822C733.723 750.915 720.041 749.024 713.17 757.452C709.42 762.04 709.046 767.719 708.989 772.68C708.884 783.412 709.434 794.292 710.612 805.028C712.279 819.787 720.429 824.543 727.392 823.369C721.382 837.31 712.408 849.966 701.059 860.023C695.403 865.037 703.008 873.585 708.649 868.561C725.395 853.716 737.506 833.752 743.382 812.14C749.229 806.111 754.794 799.775 760.042 793.171C771.018 806.436 792.883 797.759 794.469 774.692C810.013 780.61 824.207 768.447 827.703 752.232C829.666 743.172 828.507 733.987 827.478 725.884C826.515 718.385 815.18 719.827 816.143 727.311C817.095 734.863 818.077 742.664 816.545 749.819C815.352 755.316 811.904 761.992 805.746 764.214C801.202 765.871 794.617 763.534 793.573 759.066C791.94 752.022 781.472 753.994 782.343 761.044C783.043 766.934 783.847 773.614 782.152 779.193C780.873 783.45 777.301 787.846 772.986 788.024C770.419 788.225 766.909 784.686 767.9 782.583C770.951 776.377 762.211 771.105 758.127 776.76C754.616 781.64 750.924 786.395 747.055 791.007C747.28 788.215 747.4 785.428 747.4 782.636C747.414 775.855 746.715 766.005 740.528 758.822ZM733.086 806.307C731.453 807.94 727.32 812.427 725.323 812.049C720.319 811.192 720.372 776.866 720.415 772.795C720.458 768.112 720.774 763.064 725.395 763.357C739.776 763.357 736.467 792.415 733.086 806.307Z" fill="#2E2E2E"/>
<path d="M466.38 433.549C535.324 378.885 536.536 379.642 459.173 422.77C453.46 425.748 445.061 432.486 443.308 442.997C441.532 463.9 454.725 475.757 480.052 507.277C496.789 528.736 508.201 546.679 530.545 531.336C532.106 530.201 605.49 476.993 600.859 480.355C605.159 476.883 612.108 473.444 615.508 463.508C617.05 458.547 615.862 452.766 613.784 449.117C610.705 443.333 607.846 441.182 583.327 415.275C567.519 398.72 551.712 379.877 535.722 381.002C523.97 381.873 517.223 390.656 518.296 392.524C518.813 393.419 520.676 393.448 523.707 392.902C533.787 391.346 538.375 390.01 549.897 402.872C583.701 441.182 602.257 456.387 599.791 459.059C599.642 460.486 596.065 463.905 591.267 467.133C589.706 468.263 516.552 521.303 521.188 517.946C512.396 523.755 512.678 521.452 492.767 497.02C476.7 475.978 457.607 458.341 459.489 445.239C459.255 441.058 461.711 437.193 466.38 433.549Z" fill="#2E2E2E"/>
</svg>
