<svg xmlns="http://www.w3.org/2000/svg" xmlns:xlink="http://www.w3.org/1999/xlink" width="1080" zoomAndPan="magnify" viewBox="0 0 810 809.999993" height="1080" preserveAspectRatio="xMidYMid meet" version="1.0"><rect x="-81" width="972" fill="#ffffff" y="-80.999999" height="971.999992" fill-opacity="1"/><rect x="-81" width="972" fill="#fefefe" y="-80.999999" height="971.999992" fill-opacity="1"/><path fill="#2e2e2e" d="M 140.652344 530.050781 C 158.699219 565.332031 182.515625 613.820312 250.585938 693.230469 C 279.519531 726.976562 317.84375 767.714844 352.335938 795.195312 C 361.105469 801.460938 366.234375 806.980469 377.886719 805.816406 C 379.136719 805.730469 403.445312 804.070312 401.898438 804.175781 C 588.476562 787.800781 707.003906 691.917969 703.527344 687.011719 C 699.34375 681.066406 604.46875 754.992188 462.925781 782.214844 C 419.914062 790.464844 389.085938 791.65625 385.070312 792.070312 C 371.207031 792.449219 374.035156 795.019531 360.511719 784.675781 C 312.007812 745.953125 238.675781 666.464844 185.25 583.660156 C 139.238281 519.984375 49.492188 351.695312 140.652344 530.050781 Z M 140.652344 530.050781 " fill-opacity="1" fill-rule="nonzero"/><path fill="#2e2e2e" d="M 707.078125 338.066406 C 708.0625 336.15625 707.070312 333.695312 705.382812 332.367188 C 703.695312 331.039062 701.496094 330.578125 699.378906 330.21875 C 679.414062 326.835938 658.964844 328.996094 638.820312 331.167969 C 635.738281 331.5 630.691406 332.140625 629.148438 335.351562 C 627.640625 338.480469 629.859375 342.949219 632.46875 344.722656 C 635.875 347.035156 640.273438 347.144531 644.394531 347.089844 C 663.644531 346.839844 682.875 344.789062 701.753906 340.972656 C 703.804688 340.558594 706.113281 339.929688 707.078125 338.066406 Z M 707.078125 338.066406 " fill-opacity="1" fill-rule="nonzero"/><path fill="#2e2e2e" d="M 680.886719 387.734375 C 669.472656 378.050781 655.660156 371.714844 642.039062 365.496094 C 639.953125 364.542969 636.5 363.050781 634.308594 364.511719 C 632.171875 365.9375 631.898438 369.621094 632.890625 371.730469 C 636.4375 379.300781 670.464844 392.730469 678.339844 395.480469 C 679.800781 395.988281 681.507812 396.460938 682.820312 395.640625 C 684.167969 394.792969 684.464844 392.851562 683.894531 391.367188 C 683.320312 389.886719 682.097656 388.765625 680.886719 387.734375 Z M 680.886719 387.734375 " fill-opacity="1" fill-rule="nonzero"/><path fill="#2e2e2e" d="M 661.820312 282.757812 C 662.8125 281.644531 663.859375 280.304688 663.613281 278.835938 C 663.359375 277.328125 661.746094 276.355469 660.21875 276.320312 C 658.691406 276.28125 657.242188 276.960938 655.882812 277.660156 C 643.066406 284.253906 632.339844 294.203125 621.789062 304.027344 C 620.171875 305.535156 617.570312 308.050781 618.058594 310.53125 C 618.535156 312.953125 621.707031 314.546875 623.945312 314.441406 C 626.875 314.304688 629.425781 312.488281 631.75 310.699219 C 642.609375 302.347656 652.691406 292.976562 661.820312 282.757812 Z M 661.820312 282.757812 " fill-opacity="1" fill-rule="nonzero"/><path fill="#2e2e2e" d="M 210.371094 217.589844 C 230.144531 204.285156 243.839844 211.773438 258.429688 229.101562 C 253.855469 216.476562 254.703125 201.984375 260.71875 189.980469 C 263.691406 184.042969 267.820312 178.773438 271.921875 173.546875 C 259.273438 174.847656 248.429688 193.707031 229.980469 170.566406 C 228.351562 168.523438 226.558594 166.863281 225.132812 164.675781 C 225.316406 167.351562 226.445312 169.953125 226.773438 172.640625 C 228.597656 187.554688 218.46875 210.054688 210.371094 217.589844 Z M 210.371094 217.589844 " fill-opacity="1" fill-rule="nonzero"/><path fill="#2e2e2e" d="M 241.125 704.285156 C 227.78125 706.867188 217.929688 728.007812 196.09375 705.074219 C 194.160156 703.046875 192.09375 701.445312 190.363281 699.246094 C 191.285156 705.0625 198.40625 712.753906 188.753906 739.957031 C 186.574219 746.101562 183.976562 752.253906 179.613281 757.097656 C 199.453125 741.035156 214.78125 747.726562 231.980469 764.835938 C 225.90625 751.800781 225.441406 736.257812 230.722656 722.878906 C 233.335938 716.265625 237.246094 710.25 241.125 704.285156 Z M 241.125 704.285156 " fill-opacity="1" fill-rule="nonzero"/><path fill="#2e2e2e" d="M 130.78125 393.503906 C 127.039062 399.175781 126.105469 406.898438 128.976562 413.558594 C 132.550781 420.152344 133.511719 421.6875 184.710938 509.621094 C 265.726562 639.960938 391.164062 749.628906 413.917969 756.972656 C 417.410156 758.203125 422.199219 758.050781 424.558594 757.699219 C 430.585938 756.980469 448.144531 755.65625 473.667969 751.269531 C 570.691406 734.753906 662.945312 695.511719 744.09375 634.832031 C 746.484375 632.957031 748.054688 632.015625 751.113281 629.375 C 760.136719 620.933594 760.640625 607.035156 753.140625 598.121094 C 736.898438 578.777344 692.695312 529.011719 628.152344 447.230469 C 502.753906 281.089844 602.488281 413.71875 481.652344 248.953125 C 484.984375 250.632812 490.453125 251.71875 497.195312 248.339844 C 508.378906 239.179688 516.300781 209.789062 518.660156 195.472656 C 519.253906 191.722656 519.007812 188.871094 518.464844 186.503906 C 543.128906 177.589844 569.699219 172.632812 596.253906 165.101562 C 606.25 161.234375 614.933594 157.175781 622.464844 153.140625 C 628.976562 157.300781 634.035156 154.996094 643.917969 152.386719 L 651.011719 149.746094 C 660.628906 146.378906 671.089844 143.25 680.707031 139.042969 L 687.921875 135.917969 L 691.527344 134.234375 C 702.980469 128.515625 697.984375 117.929688 696.457031 109.347656 C 692.613281 89.390625 687.441406 69.550781 684.675781 49.476562 C 680.648438 23.59375 682.710938 15.390625 675.296875 8.234375 C 671.929688 4.988281 667.363281 4.027344 664 4.027344 C 657.828125 4.027344 630.523438 10.113281 619.152344 15.089844 C 608.824219 19.085938 593.125 22.949219 591.515625 33.09375 C 579.75 33.019531 561.96875 34.847656 539.332031 33.402344 C 477.273438 32.496094 430.351562 27.121094 395.621094 107.964844 C 376.339844 152.097656 381.527344 196.351562 392.871094 212.652344 L 354.949219 238.492188 C 312.554688 275.585938 311.496094 274.007812 360.421875 246.523438 C 406.179688 215.054688 397.199219 221.867188 403.011719 217.015625 C 403.203125 217.925781 403.277344 218.839844 403.597656 219.738281 C 405.882812 227.363281 414.464844 232.65625 421.402344 232.605469 C 432.136719 233.117188 440.65625 228.410156 449.105469 223.960938 C 596.308594 432.984375 585.582031 412.9375 617.695312 455.484375 C 739.144531 609.394531 748.203125 604.449219 744.578125 615.625 C 743.226562 619.5625 740.667969 620.648438 736.109375 624.167969 C 648.429688 689.707031 547.875 729.890625 439.433594 742.738281 C 414.558594 745.171875 420.871094 745.800781 412.265625 741.214844 C 395.054688 729.472656 378.449219 715.105469 362.492188 700.679688 C 252.507812 599.722656 210.449219 526.125 137.554688 409.796875 C 135.238281 405.011719 136.082031 398.339844 142.585938 393.800781 C 353.289062 243.949219 343.480469 250.992188 144.167969 382.539062 C 138.582031 386.226562 133.496094 389.007812 130.78125 393.503906 Z M 639.828125 26.390625 C 640.792969 26.511719 640.3125 32.402344 642.71875 43.34375 C 642.117188 60.535156 645.964844 77.847656 653.777344 93.238281 C 663.816406 112.449219 653.597656 111.339844 646.082031 97.085938 C 637.546875 80.492188 633.460938 61.617188 634.183594 42.984375 C 636.824219 31.5625 639.109375 26.390625 639.828125 26.390625 Z M 416.160156 215.292969 C 410.335938 198.261719 462.511719 167.972656 476.804688 157.996094 C 480.457031 157.90625 485.960938 156.574219 491.003906 153.738281 C 494.25 151.714844 499.851562 148.304688 500.6875 139.558594 C 499.929688 132.574219 496.542969 128.910156 493.285156 125.480469 C 482.230469 115.097656 466.167969 112.019531 454.597656 118.035156 C 437.601562 126.359375 430.519531 144.441406 427.496094 159.226562 C 425.757812 167.628906 425.300781 173.714844 425.671875 177.804688 C 415.832031 186.125 405.464844 195.359375 402.996094 207.171875 C 402.238281 207.507812 401.449219 207.792969 400.710938 208.152344 C 398.660156 201.921875 395.628906 183.625 396.054688 165.539062 C 397.203125 126.316406 417.390625 86.503906 436.753906 68.351562 C 464.566406 41.730469 502.59375 46.125 539.296875 46.726562 C 563.445312 44.148438 580.300781 39.660156 591.890625 37.765625 C 592.464844 39.371094 593.253906 39.976562 593.785156 39.976562 C 593.90625 41.300781 594.023438 42.5 594.144531 43.824219 C 593.542969 41.417969 593.0625 40.097656 592.820312 40.097656 C 592.21875 40.097656 592.21875 46.589844 592.582031 59.453125 C 592.582031 72.429688 598.03125 103.511719 602.199219 117.402344 C 606.117188 127.488281 610.628906 136.183594 615.832031 145.886719 C 598.777344 151.734375 551.765625 162.277344 532.242188 167.910156 C 491.769531 178.871094 472.996094 195.632812 447.527344 209.832031 C 438.699219 214.617188 420.105469 225.222656 416.160156 215.292969 Z M 486.976562 145.605469 C 476.203125 146.355469 451.78125 159.039062 439.207031 167.542969 C 439.660156 165.882812 440.089844 164.113281 440.480469 162.214844 C 442.132812 155.136719 444.011719 148.363281 447.277344 142.929688 C 450.523438 137.332031 455.144531 132.546875 460.3125 130.074219 C 465.511719 127.554688 470.828125 127.746094 476.617188 130.273438 C 479.417969 131.453125 481.992188 133.167969 484.046875 135.082031 C 486.039062 136.882812 487.484375 139.65625 487.382812 140.285156 C 488.539062 140.992188 488.160156 143.445312 486.976562 145.605469 Z M 459.296875 218.804688 C 461.6875 217.230469 463.921875 215.753906 466.214844 214.242188 C 468.175781 213.039062 470.117188 211.867188 472.054688 210.660156 L 468.148438 230.605469 C 458.367188 217.375 460.859375 220.726562 459.296875 218.804688 Z M 475.742188 240.894531 C 476.886719 239.632812 478.425781 237.558594 480.949219 234.535156 C 486.3125 205.773438 487.347656 205.007812 486.644531 201.667969 C 492.894531 197.808594 499.316406 194.367188 505.960938 191.453125 C 503.789062 201.722656 497.128906 231.453125 488.835938 237.960938 C 488.144531 241.703125 484.382812 243.761719 481.980469 243.925781 C 479.832031 244.160156 478.550781 243.667969 477.828125 243.738281 C 477.179688 242.851562 477.140625 242.796875 475.742188 240.894531 Z M 475.742188 240.894531 " fill-opacity="1" fill-rule="nonzero"/><path fill="#2e2e2e" d="M 306.042969 423.253906 C 302.496094 424.226562 299.761719 425.242188 296.285156 426.863281 C 292.527344 428.402344 290.222656 432.324219 289.886719 435.503906 C 289.65625 437.28125 289.257812 439.003906 288.757812 440.625 C 282.050781 462.515625 259.238281 458.5 259.144531 459.957031 C 258.304688 462.367188 289.847656 468.511719 299.960938 438.152344 C 300.292969 437.382812 300.589844 437.542969 300.914062 437.542969 C 316.980469 433.746094 331.476562 436.507812 344.484375 446.628906 C 347.976562 449.246094 347.433594 449.339844 347.605469 449.761719 C 346.242188 450.632812 323.488281 465.15625 324.929688 464.238281 L 250.542969 511.726562 C 250.492188 511.625 250.75 512.007812 250.042969 511.238281 C 249.347656 508.953125 248.863281 507.144531 248.359375 503.558594 C 245.835938 485.191406 250.945312 474.101562 256.992188 461.515625 C 257.839844 460.320312 259.199219 459.8125 259.332031 458.976562 C 260.113281 449.257812 226.714844 468.757812 236.230469 511.28125 C 236.695312 512.800781 236.867188 515.421875 238.945312 518.613281 C 242.039062 523.984375 251.070312 527.496094 257.300781 523.21875 C 258.546875 522.421875 353.636719 461.785156 355.996094 460.125 C 361.292969 456.265625 362.847656 447.945312 358.019531 441.085938 C 355.589844 438.09375 354.226562 437.453125 352.621094 436.074219 C 339.921875 426.140625 322.796875 420.421875 306.042969 423.253906 Z M 306.042969 423.253906 " fill-opacity="1" fill-rule="nonzero"/><path fill="#2e2e2e" d="M 249.949219 383.992188 C 259.941406 380.289062 269.515625 384.265625 274.382812 387.773438 C 279.445312 391.472656 281.402344 394.40625 282.078125 394 C 283.820312 393.164062 274.085938 370.582031 248.191406 370.78125 C 221.511719 374.011719 207.292969 405.371094 222.515625 428.960938 C 237.378906 452.71875 271.898438 452.972656 285.957031 429.640625 C 297.5 410.410156 285.554688 392.046875 281.195312 394.460938 C 279.636719 395.273438 279.667969 398.378906 279.59375 403.265625 C 278.8125 438.738281 245.589844 440.777344 233.765625 421.816406 C 223.855469 406.429688 232.734375 386.105469 249.949219 383.992188 Z M 249.949219 383.992188 " fill-opacity="1" fill-rule="nonzero"/><path fill="#2e2e2e" d="M 448.082031 492.285156 C 462.066406 471.714844 465.335938 460.253906 464.558594 459.742188 C 463.210938 458.738281 457.046875 469.230469 438.78125 482.746094 C 409.171875 511.789062 381.652344 515.234375 367.117188 522.339844 C 351.515625 529.933594 341.753906 546.03125 328.863281 554.984375 C 325.425781 557.460938 322.988281 558.90625 323.011719 560.679688 C 322.917969 564.570312 336.765625 567.90625 353.132812 550.917969 C 359.972656 544.050781 365.824219 537.722656 373.058594 534.265625 C 384.476562 528.535156 416.261719 523.472656 448.082031 492.285156 Z M 448.082031 492.285156 " fill-opacity="1" fill-rule="nonzero"/><path fill="#2e2e2e" d="M 374.796875 601.578125 C 378.277344 602.210938 381.710938 598.46875 386.5 591.898438 C 399.910156 574.023438 421.867188 582.910156 434.980469 564.261719 C 437.242188 557.078125 437.066406 552.324219 437.1875 549.09375 C 437.117188 536.6875 433.390625 550.09375 424.265625 556.34375 C 415.464844 569.421875 392.214844 561.882812 375.8125 583.941406 C 368.722656 593.972656 371.753906 601.238281 374.796875 601.578125 Z M 374.796875 601.578125 " fill-opacity="1" fill-rule="nonzero"/><path fill="#2e2e2e" d="M 402.640625 631.8125 L 573.757812 524.832031 L 583.640625 540.636719 L 412.519531 647.617188 Z M 402.640625 631.8125 " fill-opacity="1" fill-rule="nonzero"/><path fill="#2e2e2e" d="M 483.867188 639.328125 C 475.199219 646.5 466.214844 653.296875 456.949219 659.683594 C 447.097656 666.328125 454.1875 677.621094 464.515625 670.652344 C 474.101562 664.046875 483.394531 657.011719 492.367188 649.589844 C 497.394531 633.144531 498.789062 635.371094 483.867188 639.328125 Z M 483.867188 639.328125 " fill-opacity="1" fill-rule="nonzero"/><path fill="#2e2e2e" d="M 591.820312 593.691406 C 586.269531 587.242188 575.109375 585.699219 569.503906 592.574219 C 566.445312 596.316406 566.140625 600.949219 566.09375 604.996094 C 566.007812 613.75 566.457031 622.625 567.417969 631.382812 C 568.777344 643.421875 575.425781 647.300781 581.105469 646.34375 C 576.203125 657.714844 568.882812 668.039062 559.625 676.242188 C 555.011719 680.332031 561.214844 687.304688 565.816406 683.207031 C 579.476562 671.097656 589.355469 654.8125 594.148438 637.183594 C 598.917969 632.265625 603.457031 627.097656 607.738281 621.710938 C 616.691406 632.53125 634.527344 625.453125 635.820312 606.636719 C 648.5 611.464844 660.078125 601.542969 662.929688 588.316406 C 664.53125 580.925781 663.585938 573.433594 662.746094 566.824219 C 661.960938 560.707031 652.714844 561.882812 653.5 567.988281 C 654.277344 574.148438 655.078125 580.511719 653.828125 586.347656 C 652.855469 590.832031 650.042969 596.277344 645.019531 598.089844 C 641.3125 599.441406 635.941406 597.535156 635.089844 593.890625 C 633.757812 588.144531 625.21875 589.753906 625.929688 595.503906 C 626.5 600.308594 627.15625 605.757812 625.773438 610.308594 C 624.730469 613.78125 621.816406 617.367188 618.296875 617.511719 C 616.203125 617.675781 613.339844 614.789062 614.148438 613.074219 C 616.636719 608.011719 609.507812 603.710938 606.175781 608.324219 C 603.3125 612.304688 600.300781 616.183594 597.144531 619.945312 C 597.328125 617.667969 597.425781 615.394531 597.425781 613.117188 C 597.4375 607.585938 596.867188 599.550781 591.820312 593.691406 Z M 585.75 632.425781 C 584.417969 633.757812 581.046875 637.417969 579.417969 637.109375 C 575.335938 636.410156 575.378906 608.410156 575.414062 605.089844 C 575.449219 601.269531 575.707031 597.152344 579.476562 597.390625 C 591.207031 597.390625 588.507812 621.09375 585.75 632.425781 Z M 585.75 632.425781 " fill-opacity="1" fill-rule="nonzero"/><path fill="#2e2e2e" d="M 368.195312 328.363281 C 424.433594 283.773438 425.421875 284.390625 362.316406 319.570312 C 357.65625 322 350.804688 327.496094 349.375 336.070312 C 347.925781 353.121094 358.6875 362.792969 379.347656 388.503906 C 393 406.007812 402.308594 420.644531 420.535156 408.128906 C 421.808594 407.203125 481.667969 363.800781 477.890625 366.542969 C 481.398438 363.710938 487.066406 360.90625 489.839844 352.800781 C 491.097656 348.753906 490.128906 344.039062 488.433594 341.0625 C 485.921875 336.34375 483.589844 334.589844 463.589844 313.457031 C 450.695312 299.953125 437.800781 284.582031 424.757812 285.5 C 415.171875 286.210938 409.667969 293.375 410.542969 294.898438 C 410.964844 295.628906 412.484375 295.652344 414.957031 295.207031 C 423.179688 293.9375 426.921875 292.847656 436.320312 303.339844 C 463.894531 334.589844 479.03125 346.992188 477.019531 349.171875 C 476.898438 350.335938 473.980469 353.125 470.066406 355.757812 C 468.792969 356.679688 409.121094 399.945312 412.902344 397.207031 C 405.730469 401.945312 405.960938 400.066406 389.71875 380.136719 C 376.613281 362.972656 361.039062 348.585938 362.574219 337.898438 C 362.382812 334.488281 364.386719 331.335938 368.195312 328.363281 Z M 368.195312 328.363281 " fill-opacity="1" fill-rule="nonzero"/></svg>